<svg xmlns="http://www.w3.org/2000/svg" xmlns:svg="http://www.w3.org/2000/svg" xmlns:xlink="http://www.w3.org/1999/xlink" version="1.0" height="680pt" width="917pt" viewBox="285 87 925 686" ><defs><style type="text/css">
            @font-face {
                font-family: 'lt_regular';
                src: url('https://app.creately.com/diagram/assets/fonts/lato/lt-regular-webfont.woff2') format('woff2'),
                    url('https://app.creately.com/diagram/assets/fonts/lato/lt-regular-webfont.woff') format('woff');
                font-weight: normal;
                font-style: normal;
            }
            @font-face {
                font-family: 'noto_regular';
                src: url('https://app.creately.com/diagram/assets/fonts/noto/noto-regular.woff') format('woff'),
                     url('https://app.creately.com/diagram/assets/fonts/noto/noto-regular.woff2') format('woff2');
                font-weight: normal;
                font-style: normal;
            }
        p {
            margin: 0;
        }
        </style></defs><defs><style>
            span{ display: inline-block; }
        </style></defs><g id="xVikgfxP798"><g><path d="M 1160,610 L 1197.4488607933322,610 Q 1207.4488607933322,610 1207.269345408103,600.0016114185102 L 1207,585 L 1207.269345408103,569.9983885814898 Q 1207.277403149926,569.5496001184167 1207,560 Q 1207,550 1207,550 L 1207,395 L 1207,240 Q 1207,230 1197,230 L 990,230" fill="none" stroke="#97a3b6" stroke-width="2" stroke-linecap="round" stroke-linejoin="round"/><path d="M 990,230 L 996.9565217391304,236.49717514124293 M 990,230 L 996.9565217391304,223.50282485875707 Z" fill="rgb(255,255,255)" stroke="#97a3b6" stroke-width="2" stroke-linecap="round" stroke-linejoin="round"/></g></g><g id="YQAcsEHAv5I"><g transform="translate(680 90)"><path d="M 20,40 L 20,40 L 20,40 A 20 20 0 0 1 0 20.000000000000004 L 0,20 L 0,20.000000000000004 A 20 20 0 0 1 20 0 L 80,0 L 80,0 L 80,0 A 20 20 0 0 1 100 20 L 100,20 L 100,20 A 20 20 0 0 1 80 40 L 20,40 Z" fill="rgb(32,41,58)" stroke="#20293a" stroke-width="2" stroke-linecap="round" stroke-linejoin="round" stroke-dasharray="0 0"/></g><g transform="translate(715.87, 100.75) rotate(0, 14.13, 9.25)" width="28.26" height="18.5"><text text-decoration="none" x="0.13000000000000078" fill="#ffffff" font-size="10pt" font-family="lt_regular"  y="17">Start</text><text text-decoration="none" x="28.130000000000003" fill="#4b4b4b" font-size="10pt" font-family="noto_regular"  y="17"></text></g></g><g id="3oCMkMCCIFj"><g transform="translate(670 190)"><path d="M 60,0 L 0,40 L 60,80 L 120,40 L 60,0 Z" fill="rgb(231,121,117)" stroke="#e77975" stroke-width="2" stroke-linecap="round" stroke-linejoin="round" stroke-dasharray="0 0"/></g><g transform="translate(702.48, 211.495) rotate(0, 27.52, 18.505)" width="55.04" height="37.01"><text text-decoration="none" x="1.0199999999999996" fill="#ffffff" font-size="10pt" font-family="lt_regular"  y="14">Already&#160;</text><text text-decoration="none" x="48.019999999999996" fill="#ffffff" font-size="10pt" font-family="lt_regular"  y="14">a&#160;</text><text text-decoration="none" x="0.5199999999999996" fill="#ffffff" font-size="10pt" font-family="lt_regular"  y="36">member?</text><text text-decoration="none" x="54.519999999999996" fill="#4b4b4b" font-size="10pt" font-family="noto_regular"  y="36"></text></g></g><g id="wSdu10PsbKZ"><g><path d="M 730,130 L 730,190" fill="none" stroke="#97a3b6" stroke-width="2" stroke-linecap="round" stroke-linejoin="round" stroke-dasharray="0 0"/><path d="M 730,190 L 736.4971751412429,183.04347826086956 M 730,190 L 723.5028248587571,183.04347826086956 Z" fill="rgb(255,255,255)" stroke="#97a3b6" stroke-width="2" stroke-linecap="round" stroke-linejoin="round"/></g></g><g id="ToSKjE0P3TN"><g transform="translate(870 200)"><rect x="0" y="0" width="120" height="60" fill="rgb(66,146,136)" stroke="#429288" stroke-width="2" stroke-linecap="round" stroke-linejoin="round" stroke-dasharray="0 0"/></g><g transform="translate(884.45, 211.495) rotate(0, 45.55, 18.505)" width="91.1" height="37.01"><text text-decoration="none" x="1.5499999999999972" fill="#ffffff" font-size="10pt" font-family="lt_regular"  y="14">Enter&#160;</text><text text-decoration="none" x="36.55" fill="#ffffff" font-size="10pt" font-family="lt_regular"  y="14">email&#160;</text><text text-decoration="none" x="69.55" fill="#ffffff" font-size="10pt" font-family="lt_regular"  y="14">and&#160;</text><text text-decoration="none" x="18.549999999999997" fill="#ffffff" font-size="10pt" font-family="lt_regular"  y="36">password</text><text text-decoration="none" x="72.55" fill="#4b4b4b" font-size="10pt" font-family="noto_regular"  y="36"></text></g></g><g id="5LzDWTnLPNR"><g><path d="M 790,230 L 870,230" fill="none" stroke="#97a3b6" stroke-width="2" stroke-linecap="round" stroke-linejoin="round" stroke-dasharray="0 0"/><path d="M 870,230 L 863.0434782608696,223.50282485875707 M 870,230 L 863.0434782608696,236.49717514124293 Z" fill="rgb(255,255,255)" stroke="#97a3b6" stroke-width="2" stroke-linecap="round" stroke-linejoin="round"/></g></g><g id="2fwHhcJY2m3"><g transform="translate(470 190)"><path d="M 60,0 L 0,40 L 60,80 L 120,40 L 60,0 Z" fill="rgb(231,121,117)" stroke="#e77975" stroke-width="2" stroke-linecap="round" stroke-linejoin="round" stroke-dasharray="0 0"/></g><g transform="translate(504.8, 211.495) rotate(0, 25.2, 18.505)" width="50.4" height="37.01"><text text-decoration="none" x="2.1999999999999993" fill="#ffffff" font-size="10pt" font-family="lt_regular"  y="14">Want&#160;</text><text text-decoration="none" x="36.2" fill="#ffffff" font-size="10pt" font-family="lt_regular"  y="14">to&#160;</text><text text-decoration="none" x="0" fill="#ffffff" font-size="10pt" font-family="lt_regular"  y="36">register?</text><text text-decoration="none" x="51" fill="#4b4b4b" font-size="10pt" font-family="noto_regular"  y="36"></text></g></g><g id="z9iglbAsRsT"><mask id="0aba6" x="576" y="216" width="108" height="28" maskUnits="userSpaceOnUse"><rect x="576" y="216" width="108" height="28" fill="white" /><rect x="618.13" y="217.75" width="23.74" height="24.5" fill="black" /></mask><g mask="url(#0aba6)"><path d="M 670,230 L 590,230" fill="none" stroke="#97a3b6" stroke-width="2" stroke-linecap="round" stroke-linejoin="round" stroke-dasharray="0 0"/><path d="M 590,230 L 596.9565217391304,236.49717514124293 M 590,230 L 596.9565217391304,223.50282485875707 Z" fill="rgb(255,255,255)" stroke="#97a3b6" stroke-width="2" stroke-linecap="round" stroke-linejoin="round"/></g><g transform="translate(621.13, 220.75)" width="17.74" height="18.5"><text text-decoration="none" x="0.3699999999999992" fill="#97a3b6" font-size="10pt" font-family="lt_regular"  y="17">No</text><text text-decoration="none" x="17.369999999999997" fill="#4b4b4b" font-size="10pt" font-family="noto_regular"  y="17"></text></g></g><g id="zvpLLCGxbLo"><g transform="translate(290 200)"><rect x="0" y="0" width="120" height="60" fill="rgb(66,146,136)" stroke="#429288" stroke-width="2" stroke-linecap="round" stroke-linejoin="round" stroke-dasharray="0 0"/></g><g transform="translate(306.28499999999997, 211.495) rotate(0, 43.715, 18.505)" width="87.43" height="37.01"><text text-decoration="none" x="1.2150000000000034" fill="#ffffff" font-size="10pt" font-family="lt_regular"  y="14">Fill&#160;</text><text text-decoration="none" x="20.215000000000003" fill="#ffffff" font-size="10pt" font-family="lt_regular"  y="14">registration&#160;</text><text text-decoration="none" x="29.715000000000003" fill="#ffffff" font-size="10pt" font-family="lt_regular"  y="36">form</text><text text-decoration="none" x="57.715" fill="#4b4b4b" font-size="10pt" font-family="noto_regular"  y="36"></text></g></g><g id="v7OYbn6ehkA"><mask id="6d399" x="396" y="216" width="88" height="28" maskUnits="userSpaceOnUse"><rect x="396" y="216" width="88" height="28" fill="white" /><rect x="426.44" y="217.75" width="27.12" height="24.5" fill="black" /></mask><g mask="url(#6d399)"><path d="M 470,230 L 410,230" fill="none" stroke="#97a3b6" stroke-width="2" stroke-linecap="round" stroke-linejoin="round" stroke-dasharray="0 0"/><path d="M 410,230 L 416.95652173913044,236.49717514124293 M 410,230 L 416.95652173913044,223.50282485875707 Z" fill="rgb(255,255,255)" stroke="#97a3b6" stroke-width="2" stroke-linecap="round" stroke-linejoin="round"/></g><g transform="translate(429.44, 220.75)" width="21.12" height="18.5"><text text-decoration="none" x="0.0600000000000005" fill="#97a3b6" font-size="10pt" font-family="lt_regular"  y="17">Yes</text><text text-decoration="none" x="21.060000000000002" fill="#4b4b4b" font-size="10pt" font-family="noto_regular"  y="17"></text></g></g><g id="yfIoHbXgpHs"><g transform="translate(470 340)"><path d="M 60,0 L 0,40 L 60,80 L 120,40 L 60,0 Z" fill="rgb(231,121,117)" stroke="#e77975" stroke-width="2" stroke-linecap="round" stroke-linejoin="round" stroke-dasharray="0 0"/></g><g transform="translate(498.57, 361.495) rotate(0, 31.43, 18.505)" width="62.86" height="37.01"><text text-decoration="none" x="4.93" fill="#ffffff" font-size="10pt" font-family="lt_regular"  y="14">Log&#160;</text><text text-decoration="none" x="28.93" fill="#ffffff" font-size="10pt" font-family="lt_regular"  y="14">in&#160;</text><text text-decoration="none" x="41.93" fill="#ffffff" font-size="10pt" font-family="lt_regular"  y="14">via&#160;</text><text text-decoration="none" x="1.4299999999999997" fill="#ffffff" font-size="10pt" font-family="lt_regular"  y="36">Facebook?</text><text text-decoration="none" x="61.43" fill="#4b4b4b" font-size="10pt" font-family="noto_regular"  y="36"></text></g></g><g id="ilqirSIelfV"><mask id="0e3c0" x="516" y="256" width="28" height="98" maskUnits="userSpaceOnUse"><rect x="516" y="256" width="28" height="98" fill="white" /><rect x="518.13" y="292.75" width="23.74" height="24.5" fill="black" /></mask><g mask="url(#0e3c0)"><path d="M 530,270 L 530,340" fill="none" stroke="#97a3b6" stroke-width="2" stroke-linecap="round" stroke-linejoin="round"/><path d="M 530,340 L 536.4971751412429,333.04347826086956 M 530,340 L 523.5028248587571,333.04347826086956 Z" fill="rgb(255,255,255)" stroke="#97a3b6" stroke-width="2" stroke-linecap="round" stroke-linejoin="round"/></g><g transform="translate(521.13, 295.75)" width="17.74" height="18.5"><text text-decoration="none" x="0.3699999999999992" fill="#97a3b6" font-size="10pt" font-family="lt_regular"  y="17">No</text><text text-decoration="none" x="17.369999999999997" fill="#4b4b4b" font-size="10pt" font-family="noto_regular"  y="17"></text></g></g><g id="epqn06X99Wo"><g transform="translate(350 460)"><rect x="0" y="0" width="120" height="60" fill="rgb(66,146,136)" stroke="#429288" stroke-width="2" stroke-linecap="round" stroke-linejoin="round" stroke-dasharray="0 0"/></g><g transform="translate(367.675, 471.495) rotate(0, 42.325, 18.505)" width="84.65" height="37.01"><text text-decoration="none" x="15.325000000000003" fill="#ffffff" font-size="10pt" font-family="lt_regular"  y="14">Facebook&#160;</text><text text-decoration="none" x="1.8250000000000028" fill="#ffffff" font-size="10pt" font-family="lt_regular"  y="36">authentication</text><text text-decoration="none" x="82.825" fill="#4b4b4b" font-size="10pt" font-family="noto_regular"  y="36"></text></g></g><g id="KNNLRU2P4mS"><mask id="ff73a" x="396" y="366" width="88" height="108" maskUnits="userSpaceOnUse"><rect x="396" y="366" width="88" height="108" fill="white" /><rect x="396.44" y="377.75" width="27.12" height="24.5" fill="black" /></mask><g mask="url(#ff73a)"><path d="M 470,380 L 420,380 Q 410,380 410,390 L 410,460" fill="none" stroke="#97a3b6" stroke-width="2" stroke-linecap="round" stroke-linejoin="round"/><path d="M 410,460 L 416.49717514124296,453.04347826086956 M 410,460 L 403.50282485875704,453.04347826086956 Z" fill="rgb(255,255,255)" stroke="#97a3b6" stroke-width="2" stroke-linecap="round" stroke-linejoin="round"/></g><g transform="translate(399.44, 380.75)" width="21.12" height="18.5"><text text-decoration="none" x="0.0600000000000005" fill="#97a3b6" font-size="10pt" font-family="lt_regular"  y="17">Yes</text><text text-decoration="none" x="21.060000000000002" fill="#4b4b4b" font-size="10pt" font-family="noto_regular"  y="17"></text></g></g><g id="dCpmNIYXmVv"><g transform="translate(590 450)"><path d="M 60,0 L 0,40 L 60,80 L 120,40 L 60,0 Z" fill="rgb(231,121,117)" stroke="#e77975" stroke-width="2" stroke-linecap="round" stroke-linejoin="round" stroke-dasharray="0 0"/></g><g transform="translate(623.965, 471.495) rotate(0, 26.035, 18.505)" width="52.07" height="37.01"><text text-decoration="none" x="1.0350000000000001" fill="#ffffff" font-size="10pt" font-family="lt_regular"  y="14">Login&#160;</text><text text-decoration="none" x="35.035" fill="#ffffff" font-size="10pt" font-family="lt_regular"  y="14">via&#160;</text><text text-decoration="none" x="2.535" fill="#ffffff" font-size="10pt" font-family="lt_regular"  y="36">Google?</text><text text-decoration="none" x="49.535" fill="#4b4b4b" font-size="10pt" font-family="noto_regular"  y="36"></text></g></g><g id="PkAM9Pfbc2J"><mask id="d71dc" x="576" y="366" width="88" height="98" maskUnits="userSpaceOnUse"><rect x="576" y="366" width="88" height="98" fill="white" /><rect x="638.13" y="372.75" width="23.74" height="24.5" fill="black" /></mask><g mask="url(#d71dc)"><path d="M 590,380 L 640,380 Q 650,380 650,390 L 650,450" fill="none" stroke="#97a3b6" stroke-width="2" stroke-linecap="round" stroke-linejoin="round" stroke-dasharray="0 0"/><path d="M 650,450 L 656.4971751412429,443.04347826086956 M 650,450 L 643.5028248587571,443.04347826086956 Z" fill="rgb(255,255,255)" stroke="#97a3b6" stroke-width="2" stroke-linecap="round" stroke-linejoin="round"/></g><g transform="translate(641.13, 375.75)" width="17.74" height="18.5"><text text-decoration="none" x="0.3699999999999992" fill="#97a3b6" font-size="10pt" font-family="lt_regular"  y="17">No</text><text text-decoration="none" x="17.369999999999997" fill="#4b4b4b" font-size="10pt" font-family="noto_regular"  y="17"></text></g></g><g id="GXYbW5HhMLj"><g transform="translate(590 600)"><rect x="0" y="0" width="120" height="60" fill="rgb(66,146,136)" stroke="#429288" stroke-width="2" stroke-linecap="round" stroke-linejoin="round" stroke-dasharray="0 0"/></g><g transform="translate(607.675, 611.495) rotate(0, 42.325, 18.505)" width="84.65" height="37.01"><text text-decoration="none" x="21.825000000000003" fill="#ffffff" font-size="10pt" font-family="lt_regular"  y="14">Google&#160;</text><text text-decoration="none" x="1.8250000000000028" fill="#ffffff" font-size="10pt" font-family="lt_regular"  y="36">authentication</text><text text-decoration="none" x="82.825" fill="#4b4b4b" font-size="10pt" font-family="noto_regular"  y="36"></text></g></g><g id="ovbGyH3YJjw"><mask id="1b4ae" x="636" y="516" width="28" height="98" maskUnits="userSpaceOnUse"><rect x="636" y="516" width="28" height="98" fill="white" /><rect x="636.44" y="552.75" width="27.12" height="24.5" fill="black" /></mask><g mask="url(#1b4ae)"><path d="M 650,530 L 650,600" fill="none" stroke="#97a3b6" stroke-width="2" stroke-linecap="round" stroke-linejoin="round" stroke-dasharray="0 0"/><path d="M 650,600 L 656.4971751412429,593.0434782608696 M 650,600 L 643.5028248587571,593.0434782608696 Z" fill="rgb(255,255,255)" stroke="#97a3b6" stroke-width="2" stroke-linecap="round" stroke-linejoin="round"/></g><g transform="translate(639.44, 555.75)" width="21.12" height="18.5"><text text-decoration="none" x="0.0600000000000005" fill="#97a3b6" font-size="10pt" font-family="lt_regular"  y="17">Yes</text><text text-decoration="none" x="21.060000000000002" fill="#4b4b4b" font-size="10pt" font-family="noto_regular"  y="17"></text></g></g><g id="e5pc1Uo2dTk"><g transform="translate(770 470)"><path d="M 20,40 L 20,40 L 20,40 A 20 20 0 0 1 0 20.000000000000004 L 0,20 L 0,20.000000000000004 A 20 20 0 0 1 20 0 L 80,0 L 80,0 L 80,0 A 20 20 0 0 1 100 20 L 100,20 L 100,20 A 20 20 0 0 1 80 40 L 20,40 Z" fill="rgb(32,41,58)" stroke="#20293a" stroke-width="2" stroke-linecap="round" stroke-linejoin="round" stroke-dasharray="0 0"/></g><g transform="translate(808.845, 480.75) rotate(0, 11.155, 9.25)" width="22.31" height="18.5"><text text-decoration="none" x="0.15499999999999936" fill="#ffffff" font-size="10pt" font-family="lt_regular"  y="17">Exit</text><text text-decoration="none" x="22.155" fill="#4b4b4b" font-size="10pt" font-family="noto_regular"  y="17"></text></g></g><g id="OsdYovsgktR"><mask id="c01ff" x="696" y="476" width="88" height="28" maskUnits="userSpaceOnUse"><rect x="696" y="476" width="88" height="28" fill="white" /><rect x="728.13" y="477.75" width="23.74" height="24.5" fill="black" /></mask><g mask="url(#c01ff)"><path d="M 710,490 L 770,490" fill="none" stroke="#97a3b6" stroke-width="2" stroke-linecap="round" stroke-linejoin="round"/><path d="M 770,490 L 761.304347826087,484.25 L 761.304347826087,495.75 Z" fill="rgb(151,163,182)" stroke="#97a3b6" stroke-width="2" stroke-linecap="round" stroke-linejoin="round"/></g><g transform="translate(731.13, 480.75)" width="17.74" height="18.5"><text text-decoration="none" x="0.3699999999999992" fill="#97a3b6" font-size="10pt" font-family="lt_regular"  y="17">No</text><text text-decoration="none" x="17.369999999999997" fill="#4b4b4b" font-size="10pt" font-family="noto_regular"  y="17"></text></g></g><g id="fpkmxFeChN5"><g transform="translate(750 710)"><rect x="0" y="0" width="120" height="60" fill="rgb(32,41,58)" stroke="#20293a" stroke-width="2" stroke-linecap="round" stroke-linejoin="round" stroke-dasharray="0 0"/></g><g transform="translate(768.015, 721.495) rotate(0, 41.985, 18.505)" width="83.97" height="37.01"><text text-decoration="none" x="0.9849999999999994" fill="#ffffff" font-size="10pt" font-family="lt_regular"  y="14">User&#160;</text><text text-decoration="none" x="31.985" fill="#ffffff" font-size="10pt" font-family="lt_regular"  y="14">logged&#160;</text><text text-decoration="none" x="72.985" fill="#ffffff" font-size="10pt" font-family="lt_regular"  y="14">in&#160;</text><text text-decoration="none" x="7.484999999999999" fill="#ffffff" font-size="10pt" font-family="lt_regular"  y="36">successfully</text><text text-decoration="none" x="76.485" fill="#4b4b4b" font-size="10pt" font-family="noto_regular"  y="36"></text></g></g><g id="6MRQerjWixS"><g><path d="M 410,520 L 410,730 Q 410,740 420,740 L 750,740" fill="none" stroke="#97a3b6" stroke-width="2" stroke-linecap="round" stroke-linejoin="round"/><path d="M 750,740 L 743.0434782608696,733.5028248587571 M 750,740 L 743.0434782608696,746.4971751412429 Z" fill="rgb(255,255,255)" stroke="#97a3b6" stroke-width="2" stroke-linecap="round" stroke-linejoin="round"/></g></g><g id="AQYY5bjFIlj"><g><path d="M 650,660 L 650,730 Q 650,740 660,740 L 750,740" fill="none" stroke="#97a3b6" stroke-width="2" stroke-linecap="round" stroke-linejoin="round" stroke-dasharray="0 0"/><path d="M 750,740 L 743.0434782608696,733.5028248587571 M 750,740 L 743.0434782608696,746.4971751412429 Z" fill="rgb(255,255,255)" stroke="#97a3b6" stroke-width="2" stroke-linecap="round" stroke-linejoin="round"/></g></g><g id="eZ4ogX2i5Um"><g transform="translate(870 320)"><path d="M 60,0 L 0,40 L 60,80 L 120,40 L 60,0 Z" fill="rgb(242,193,75)" stroke="#f2c14b" stroke-width="2" stroke-linecap="round" stroke-linejoin="round" stroke-dasharray="0 0"/></g><g transform="translate(895.175, 341.495) rotate(0, 34.825, 18.505)" width="69.65" height="37.01"><text text-decoration="none" x="6.825000000000003" fill="#ffffff" font-size="10pt" font-family="lt_regular"  y="14">Valid&#160;</text><text text-decoration="none" x="37.825" fill="#ffffff" font-size="10pt" font-family="lt_regular"  y="14">user&#160;</text><text text-decoration="none" x="0.8250000000000028" fill="#ffffff" font-size="10pt" font-family="lt_regular"  y="36">credentials?</text><text text-decoration="none" x="68.825" fill="#4b4b4b" font-size="10pt" font-family="noto_regular"  y="36"></text></g></g><g id="vq9D4FheSUg"><g><path d="M 930,260 L 930,320" fill="none" stroke="#97a3b6" stroke-width="2" stroke-linecap="round" stroke-linejoin="round"/><path d="M 930,320 L 936.4971751412429,313.04347826086956 M 930,320 L 923.5028248587571,313.04347826086956 Z" fill="rgb(255,255,255)" stroke="#97a3b6" stroke-width="2" stroke-linecap="round" stroke-linejoin="round"/></g></g><g id="adpotRm6ohq"><mask id="617f9" x="856" y="386" width="88" height="368" maskUnits="userSpaceOnUse"><rect x="856" y="386" width="88" height="368" fill="white" /><rect x="916.44" y="587.75" width="27.12" height="24.5" fill="black" /></mask><g mask="url(#617f9)"><path d="M 930,400 L 930,730 Q 930,740 920,740 L 870,740" fill="none" stroke="#97a3b6" stroke-width="2" stroke-linecap="round" stroke-linejoin="round" stroke-dasharray="0 0"/><path d="M 870,740 L 876.9565217391304,746.4971751412429 M 870,740 L 876.9565217391304,733.5028248587571 Z" fill="rgb(255,255,255)" stroke="#97a3b6" stroke-width="2" stroke-linecap="round" stroke-linejoin="round"/></g><g transform="translate(919.44, 590.75)" width="21.12" height="18.5"><text text-decoration="none" x="0.0600000000000005" fill="#97a3b6" font-size="10pt" font-family="lt_regular"  y="17">Yes</text><text text-decoration="none" x="21.060000000000002" fill="#4b4b4b" font-size="10pt" font-family="noto_regular"  y="17"></text></g></g><g id="yf3powB03St"><g transform="translate(1040 330)"><rect x="0" y="0" width="120" height="60" fill="rgb(66,146,136)" stroke="#429288" stroke-width="2" stroke-linecap="round" stroke-linejoin="round" stroke-dasharray="0 0"/></g><g transform="translate(1066.25, 350.75) rotate(0, 33.75, 9.25)" width="67.5" height="18.5"><text text-decoration="none" x="1.25" fill="#ffffff" font-size="10pt" font-family="lt_regular"  y="17">Login&#160;</text><text text-decoration="none" x="35.25" fill="#ffffff" font-size="10pt" font-family="lt_regular"  y="17">failed</text><text text-decoration="none" x="66.25" fill="#4b4b4b" font-size="10pt" font-family="noto_regular"  y="17"></text></g></g><g id="laEQae3IUDF"><mask id="5aff2" x="976" y="346" width="78" height="28" maskUnits="userSpaceOnUse"><rect x="976" y="346" width="78" height="28" fill="white" /><rect x="1003.13" y="347.75" width="23.74" height="24.5" fill="black" /></mask><g mask="url(#5aff2)"><path d="M 990,360 L 1040,360" fill="none" stroke="#97a3b6" stroke-width="2" stroke-linecap="round" stroke-linejoin="round" stroke-dasharray="0 0"/><path d="M 1040,360 L 1033.0434782608695,353.50282485875704 M 1040,360 L 1033.0434782608695,366.49717514124296 Z" fill="rgb(255,255,255)" stroke="#97a3b6" stroke-width="2" stroke-linecap="round" stroke-linejoin="round"/></g><g transform="translate(1006.13, 350.75)" width="17.74" height="18.5"><text text-decoration="none" x="0.3699999999999992" fill="#97a3b6" font-size="10pt" font-family="lt_regular"  y="17">No</text><text text-decoration="none" x="17.369999999999997" fill="#4b4b4b" font-size="10pt" font-family="noto_regular"  y="17"></text></g></g><g id="vIkYaW79OOS"><g transform="translate(1040 450)"><path d="M 60,0 L 0,40 L 60,80 L 120,40 L 60,0 Z" fill="rgb(242,193,75)" stroke="#f2c14b" stroke-width="2" stroke-linecap="round" stroke-linejoin="round" stroke-dasharray="0 0"/></g><g transform="translate(1069.04, 471.495) rotate(0, 30.96, 18.505)" width="61.92" height="37.01"><text text-decoration="none" x="11.96" fill="#ffffff" font-size="10pt" font-family="lt_regular"  y="14">Forgot&#160;</text><text text-decoration="none" x="0.9600000000000009" fill="#ffffff" font-size="10pt" font-family="lt_regular"  y="36">password?</text><text text-decoration="none" x="60.96" fill="#4b4b4b" font-size="10pt" font-family="noto_regular"  y="36"></text></g></g><g id="UcGXaUzROg2"><g><path d="M 1100,390 L 1100,450" fill="none" stroke="#97a3b6" stroke-width="2" stroke-linecap="round" stroke-linejoin="round" stroke-dasharray="0 0"/><path d="M 1100,450 L 1106.497175141243,443.04347826086956 M 1100,450 L 1093.502824858757,443.04347826086956 Z" fill="rgb(255,255,255)" stroke="#97a3b6" stroke-width="2" stroke-linecap="round" stroke-linejoin="round"/></g></g><g id="oXLA90Aj9LR"><g transform="translate(1040 580)"><rect x="0" y="0" width="120" height="60" fill="rgb(66,146,136)" stroke="#429288" stroke-width="2" stroke-linecap="round" stroke-linejoin="round" stroke-dasharray="0 0"/></g><g transform="translate(1053.83, 600.75) rotate(0, 46.17, 9.25)" width="92.34" height="18.5"><text text-decoration="none" x="1.1700000000000017" fill="#ffffff" font-size="10pt" font-family="lt_regular"  y="17">Reset&#160;</text><text text-decoration="none" x="37.17" fill="#ffffff" font-size="10pt" font-family="lt_regular"  y="17">password</text><text text-decoration="none" x="91.17" fill="#4b4b4b" font-size="10pt" font-family="noto_regular"  y="17"></text></g></g><g id="ADlueO0uCf2"><mask id="da99a" x="1086" y="516" width="28" height="78" maskUnits="userSpaceOnUse"><rect x="1086" y="516" width="28" height="78" fill="white" /><rect x="1086.44" y="542.75" width="27.12" height="24.5" fill="black" /></mask><g mask="url(#da99a)"><path d="M 1100,530 L 1100,580" fill="none" stroke="#97a3b6" stroke-width="2" stroke-linecap="round" stroke-linejoin="round" stroke-dasharray="0 0"/><path d="M 1100,580 L 1106.497175141243,573.0434782608696 M 1100,580 L 1093.502824858757,573.0434782608696 Z" fill="rgb(255,255,255)" stroke="#97a3b6" stroke-width="2" stroke-linecap="round" stroke-linejoin="round"/></g><g transform="translate(1089.44, 545.75)" width="21.12" height="18.5"><text text-decoration="none" x="0.0600000000000005" fill="#97a3b6" font-size="10pt" font-family="lt_regular"  y="17">Yes</text><text text-decoration="none" x="21.060000000000002" fill="#4b4b4b" font-size="10pt" font-family="noto_regular"  y="17"></text></g></g><g id="Hnue65mjUGN"><mask id="c4e14" x="976" y="216" width="244" height="288" maskUnits="userSpaceOnUse"><rect x="976" y="216" width="244" height="288" fill="white" />undefined<rect x="1178.13" y="477.75" width="23.74" height="24.5" fill="black" /></mask><g mask="url(#c4e14)"><path d="M 1160,490 L 1196,490 Q 1206,490 1206,480 L 1206,460 L 1206,440 Q 1206,440 1206,430 Q 1205.5474994062613,420.5001187477735 1205.5499993750118,420.0001249976563 L 1206,330 L 1205.5499993750118,239.9998750023437 Q 1205.5,230 1195.5,230 L 990,230" fill="none" stroke="#97a3b6" stroke-width="2" stroke-linecap="round" stroke-linejoin="round" stroke-dasharray="0 0"/><path d="M 990,230 L 996.9565217391304,236.49717514124293 M 990,230 L 996.9565217391304,223.50282485875707 Z" fill="rgb(255,255,255)" stroke="#97a3b6" stroke-width="2" stroke-linecap="round" stroke-linejoin="round"/></g>undefined<g transform="translate(1181.13, 480.75)" width="17.74" height="18.5"><text text-decoration="none" x="0.3699999999999992" fill="#97a3b6" font-size="10pt" font-family="lt_regular"  y="17">No</text><text text-decoration="none" x="17.369999999999997" fill="#4b4b4b" font-size="10pt" font-family="noto_regular"  y="17"></text></g></g></svg>